<?xml version="1.0" encoding="UTF-8"?>
<svg version="1.1" xmlns="http://www.w3.org/2000/svg" width="636" height="636">
<path d="M0 0 C4.00281087 0.00460821 8.00560584 -0.00249981 12.00841331 -0.00795984 C19.81148729 -0.01676805 27.61452239 -0.0149706 35.41759777 -0.00913456 C41.76973154 -0.00458386 48.12185455 -0.00401974 54.47398949 -0.00618219 C55.38437989 -0.00648866 56.29477028 -0.00679513 57.23274827 -0.00711088 C59.08324337 -0.00775045 60.93373847 -0.00839888 62.78423357 -0.00905606 C80.0620243 -0.01473424 97.33979367 -0.00824117 114.61758089 0.00254467 C129.38381468 0.01147788 144.15001701 0.00992512 158.91625023 0.00070715 C176.13995314 -0.01004017 193.36363742 -0.01418515 210.58734322 -0.00806832 C212.43033663 -0.00743135 214.27333005 -0.0068026 216.11632347 -0.00618219 C217.02267988 -0.00587364 217.9290363 -0.00556509 218.86285806 -0.00524719 C225.1938518 -0.00353358 231.52483354 -0.00640625 237.85582542 -0.0111413 C245.59051012 -0.01680005 253.32515432 -0.01513031 261.05983448 -0.00457981 C264.99227623 0.00061068 268.92465093 0.0028497 272.8570919 -0.00387812 C327.24039232 -0.08887089 373.1055992 4.90752665 413.92015648 43.57394934 C450.99117288 82.20488475 453.64365659 132.08466834 453.55660582 182.96629286 C453.5519976 186.96910373 453.55910562 190.9718987 453.56456566 194.97470617 C453.57337387 202.77778014 453.57157642 210.58081525 453.56574038 218.38389063 C453.56118968 224.7360244 453.56062555 231.08814741 453.56278801 237.44028234 C453.56309448 238.35067274 453.56340094 239.26106314 453.56371669 240.19904113 C453.56435626 242.04953623 453.56500469 243.90003133 453.56566188 245.75052643 C453.57134005 263.02831716 453.56484698 280.30608653 453.55406114 297.58387375 C453.54512794 312.35010754 453.54668069 327.11630986 453.55589867 341.88254309 C453.56664599 359.106246 453.57079097 376.32993028 453.56467414 393.55363607 C453.56403716 395.39662949 453.56340842 397.23962291 453.56278801 399.08261633 C453.56247946 399.98897274 453.56217091 400.89532916 453.56185301 401.82915092 C453.56013939 408.16014466 453.56301207 414.4911264 453.56774712 420.82211828 C453.57340587 428.55680297 453.57173613 436.29144718 453.56118563 444.02612734 C453.55599513 447.95856909 453.55375612 451.89094379 453.56048393 455.82338476 C453.64547671 510.20668518 448.64907917 556.07189205 409.98265648 596.88644934 C371.35172107 633.95746574 321.47193748 636.60994945 270.59031296 636.52289867 C266.58750209 636.51829046 262.58470712 636.52539848 258.58189964 636.53085852 C250.77882567 636.53966673 242.97579057 636.53786927 235.17271519 636.53203323 C228.82058142 636.52748253 222.46845841 636.52691841 216.11632347 636.52908087 C215.20593307 636.52938733 214.29554267 636.5296938 213.35756469 636.53000955 C211.50706958 636.53064912 209.65657448 636.53129755 207.80607939 636.53195474 C190.52828866 636.53763291 173.25051929 636.53113984 155.97273207 636.520354 C141.20649828 636.5114208 126.44029595 636.51297355 111.67406273 636.52219152 C94.45035982 636.53293885 77.22667554 636.53708383 60.00296974 636.530967 C58.15997633 636.53033002 56.31698291 636.52970128 54.47398949 636.52908087 C53.56763307 636.52877232 52.66127666 636.52846377 51.7274549 636.52814586 C45.39646116 636.52643225 39.06547942 636.52930493 32.73448753 636.53403997 C24.99980284 636.53969873 17.26515864 636.53802899 9.53047848 636.52747849 C5.59803673 636.52228799 1.66566203 636.52004898 -2.26677895 636.52677679 C-56.65007937 636.61176957 -102.51528624 631.61537203 -143.32984352 592.94894934 C-180.40085993 554.31801392 -183.05334364 504.43823034 -182.96629286 453.55660582 C-182.96168464 449.55379495 -182.96879267 445.55099998 -182.9742527 441.5481925 C-182.98306091 433.74511853 -182.98126346 425.94208343 -182.97542742 418.13900805 C-182.97087672 411.78687428 -182.97031259 405.43475126 -182.97247505 399.08261633 C-182.97278152 398.17222593 -182.97308798 397.26183553 -182.97340374 396.32385755 C-182.97404331 394.47336244 -182.97469173 392.62286734 -182.97534892 390.77237225 C-182.9810271 373.49458152 -182.97453402 356.21681215 -182.96374819 338.93902493 C-182.95481498 324.17279113 -182.95636773 309.40658881 -182.96558571 294.64035559 C-182.97633303 277.41665268 -182.98047801 260.1929684 -182.97436118 242.9692626 C-182.97372421 241.12626918 -182.97309546 239.28327577 -182.97247505 237.44028234 C-182.9721665 236.53392593 -182.97185795 235.62756952 -182.97154005 234.69374776 C-182.96982644 228.36275402 -182.97269911 222.03177227 -182.97743416 215.70078039 C-182.98309291 207.9660957 -182.98142317 200.2314515 -182.97087267 192.49677134 C-182.96568218 188.56432959 -182.96344316 184.63195488 -182.97017097 180.69951391 C-183.05516375 126.31621349 -178.05876621 80.45100662 -139.39234352 39.63644934 C-100.76140811 2.56543293 -50.88162452 -0.08705078 0 0 Z " fill="#000000" transform="translate(182.70484352111816,-0.26144933700561523)"/>
<path d="M0 0 C111.87 0 223.74 0 339 0 C339 111.87 339 223.74 339 339 C299.73 339 260.46 339 220 339 C219.67 306 219.34 273 219 239 C212.81314453 245.27588135 206.62628906 251.5517627 200.25195312 258.01782227 C180.43995338 278.10279431 160.58597856 298.1457951 140.70531532 318.16279528 C137.61620684 321.27316524 134.5274708 324.3839048 131.43896484 327.49487305 C130.51667441 328.4238524 130.51667441 328.4238524 129.57575184 329.37159901 C119.62677898 339.39450204 109.70826429 349.44702959 99.80072528 359.51087225 C89.63048603 369.84020836 79.42808124 380.13694299 69.19523764 390.40426677 C62.88408583 396.73872108 56.59922675 403.09711174 50.34590721 409.48867273 C46.05261575 413.87197754 41.72841268 418.22315654 37.37887526 422.55064816 C34.87151286 425.04714217 32.37983437 427.55521055 29.92399788 430.10249519 C14.42840339 446.14659278 14.42840339 446.14659278 7.33920288 446.95695305 C3.3815487 446.94731515 -0.20304092 446.11368959 -4 445 C-5.72737873 444.71497114 -7.45733487 444.44411294 -9.19140625 444.203125 C-10.65160941 443.90032906 -12.10884647 443.58282137 -13.5625 443.25 C-14.75335205 442.98449341 -14.75335205 442.98449341 -15.96826172 442.71362305 C-51.08589901 434.61578472 -81.42009205 411.91878656 -100.62280273 381.47851562 C-108.13274343 369.129486 -118.55057659 350.94270495 -117 336 C-115.50746155 333.88942909 -115.50746155 333.88942909 -113.37133789 331.76333618 C-112.56672623 330.95040604 -111.76211456 330.13747589 -110.93312073 329.2999115 C-110.03866745 328.42186356 -109.14421417 327.54381561 -108.22265625 326.63916016 C-107.27891614 325.69519331 -106.33626959 324.7501321 -105.39463806 323.80406189 C-102.83305802 321.23677003 -100.2562434 318.68528019 -97.67633057 316.13642931 C-94.97413403 313.46179967 -92.28573277 310.77337352 -89.59570312 308.08651733 C-85.07085115 303.57087466 -80.53694134 299.06450107 -75.99658203 294.56445312 C-69.61406589 288.23855589 -63.24865734 281.89565839 -56.88632011 275.54947591 C-52.46231455 271.13797532 -48.03424419 266.73055539 -43.60538864 262.32392454 C-42.53624649 261.26012787 -41.46720787 260.19622713 -40.39827347 259.1322217 C-37.34380521 256.09216673 -34.28677541 253.05473187 -31.22580147 250.02122688 C-29.86604777 248.67273325 -28.50853121 247.32198494 -27.15110779 245.97114563 C-23.54373162 242.40127698 -19.93178731 238.88867461 -16.07933044 235.58329773 C-10.76706086 231.00648671 -5.86791588 226.00773041 -0.91821289 221.04760742 C0.1747207 219.95603144 1.26786635 218.86466774 2.36120605 217.77349854 C5.30725065 214.83198221 8.2501605 211.88734881 11.1923492 208.94197631 C14.27732934 205.85445252 17.36476198 202.76938267 20.45179749 199.68391418 C25.62729703 194.51022885 30.80069545 189.33444955 35.97290039 184.1574707 C41.95599304 178.16891959 47.9427029 172.18400268 53.93127054 166.20092696 C59.07889221 161.05783718 64.22457034 155.91280898 69.36861616 150.76614267 C72.43872425 147.69447445 75.50950678 144.62348868 78.5820446 141.55425072 C81.46451609 138.67465962 84.34454613 135.79264912 87.22267914 132.90872192 C88.28084242 131.84923269 89.33986445 130.79060035 90.39978981 129.73287392 C91.84202804 128.29335316 93.28090654 126.85046864 94.71958923 125.40739441 C95.52682906 124.59977756 96.33406889 123.7921607 97.16577053 122.96007061 C99.05455603 121.12806077 99.05455603 121.12806077 100 119 C67 119 34 119 0 119 C0 79.73 0 40.46 0 0 Z " fill="#E5E5E5" transform="translate(122,188)"/>
</svg>
